<?xml version="1.0" encoding="UTF-8" standalone="no"?>
<!DOCTYPE svg PUBLIC "-//W3C//DTD SVG 1.1//EN"
 "http://www.w3.org/Graphics/SVG/1.1/DTD/svg11.dtd">
<!-- Generated by graphviz version 2.44.1 (20200629.0846)
 -->
<!-- Pages: 1 -->
<svg width="288pt" height="260pt"
 viewBox="0.00 0.00 288.15 260.00" xmlns="http://www.w3.org/2000/svg" xmlns:xlink="http://www.w3.org/1999/xlink">
<g id="graph0" class="graph" transform="scale(1 1) rotate(0) translate(4 256)">
<polygon fill="white" stroke="transparent" points="-4,4 -4,-256 284.15,-256 284.15,4 -4,4"/>
<!-- tableA -->
<g id="node1" class="node">
<title>tableA</title>
<ellipse fill="none" stroke="black" cx="125.5" cy="-90" rx="34.5" ry="18"/>
<text text-anchor="middle" x="125.5" y="-86.3" font-family="Times,serif" font-size="14.00">tableA</text>
</g>
<!-- tableAA -->
<g id="node2" class="node">
<title>tableAA</title>
<ellipse fill="none" stroke="black" cx="125.5" cy="-18" rx="40.5" ry="18"/>
<text text-anchor="middle" x="125.5" y="-14.3" font-family="Times,serif" font-size="14.00">tableAA</text>
</g>
<!-- tableA&#45;&#45;tableAA -->
<g id="edge1" class="edge">
<title>tableA&#45;&#45;tableAA</title>
<path fill="none" stroke="red" d="M125.5,-71.7C125.5,-60.85 125.5,-46.92 125.5,-36.1"/>
</g>
<!-- tableB -->
<g id="node3" class="node">
<title>tableB</title>
<ellipse fill="none" stroke="black" cx="240.5" cy="-90" rx="34" ry="18"/>
<text text-anchor="middle" x="240.5" y="-86.3" font-family="Times,serif" font-size="14.00">tableB</text>
</g>
<!-- tableBB -->
<g id="node4" class="node">
<title>tableBB</title>
<ellipse fill="none" stroke="black" cx="240.5" cy="-18" rx="39.79" ry="18"/>
<text text-anchor="middle" x="240.5" y="-14.3" font-family="Times,serif" font-size="14.00">tableBB</text>
</g>
<!-- tableB&#45;&#45;tableBB -->
<g id="edge2" class="edge">
<title>tableB&#45;&#45;tableBB</title>
<path fill="none" stroke="red" d="M240.5,-71.7C240.5,-60.85 240.5,-46.92 240.5,-36.1"/>
</g>
<!-- fact_dd -->
<g id="node5" class="node">
<title>fact_dd</title>
<ellipse fill="none" stroke="black" cx="48.5" cy="-162" rx="37.09" ry="18"/>
<text text-anchor="middle" x="48.5" y="-158.3" font-family="Times,serif" font-size="14.00">fact_dd</text>
</g>
<!-- fact_dd&#45;&#45;tableA -->
<g id="edge3" class="edge">
<title>fact_dd&#45;&#45;tableA</title>
<path fill="none" stroke="red" d="M65.21,-145.81C78.21,-133.99 96.16,-117.67 109.09,-105.92"/>
</g>
<!-- table12 -->
<g id="node6" class="node">
<title>table12</title>
<ellipse fill="none" stroke="black" cx="36.5" cy="-90" rx="36.5" ry="18"/>
<text text-anchor="middle" x="36.5" y="-86.3" font-family="Times,serif" font-size="14.00">table12</text>
</g>
<!-- fact_dd&#45;&#45;table12 -->
<g id="edge4" class="edge">
<title>fact_dd&#45;&#45;table12</title>
<path fill="none" stroke="red" d="M45.59,-144.05C43.74,-133.21 41.33,-119.18 39.46,-108.28"/>
</g>
<!-- fact_AB -->
<g id="node7" class="node">
<title>fact_AB</title>
<ellipse fill="none" stroke="black" cx="188.5" cy="-162" rx="40.5" ry="18"/>
<text text-anchor="middle" x="188.5" y="-158.3" font-family="Times,serif" font-size="14.00">fact_AB</text>
</g>
<!-- fact_AB&#45;&#45;tableA -->
<g id="edge5" class="edge">
<title>fact_AB&#45;&#45;tableA</title>
<path fill="none" stroke="red" d="M174.2,-145.12C163.89,-133.66 150.04,-118.26 139.74,-106.82"/>
</g>
<!-- fact_AB&#45;&#45;tableB -->
<g id="edge6" class="edge">
<title>fact_AB&#45;&#45;tableB</title>
<path fill="none" stroke="red" d="M200.56,-144.76C208.96,-133.46 220.12,-118.44 228.5,-107.15"/>
</g>
<!-- agg_BC -->
<g id="node8" class="node">
<title>agg_BC</title>
<ellipse fill="none" stroke="black" cx="188.5" cy="-234" rx="39.79" ry="18"/>
<text text-anchor="middle" x="188.5" y="-230.3" font-family="Times,serif" font-size="14.00">agg_BC</text>
</g>
<!-- agg_BC&#45;&#45;tableA -->
<g id="edge7" class="edge">
<title>agg_BC&#45;&#45;tableA</title>
<path fill="none" stroke="red" d="M169.74,-217.78C159.13,-208.1 146.6,-194.66 139.5,-180 128.32,-156.91 125.72,-126.88 125.29,-108.28"/>
</g>
<!-- agg_BC&#45;&#45;tableB -->
<g id="edge8" class="edge">
<title>agg_BC&#45;&#45;tableB</title>
<path fill="none" stroke="red" d="M208.38,-218.18C219.46,-208.64 232.26,-195.21 238.5,-180 248.12,-156.55 246.24,-126.62 243.64,-108.14"/>
</g>
<!-- agg_BC&#45;&#45;fact_AB -->
<g id="edge9" class="edge">
<title>agg_BC&#45;&#45;fact_AB</title>
<path fill="none" stroke="red" d="M188.5,-215.7C188.5,-204.85 188.5,-190.92 188.5,-180.1"/>
</g>
</g>
</svg>
